Coordinates
version=1
nRows=5
nColumns=42
inDegrees=yes

Units are S.I. units (second, meters, Newtons, ...)
If the header above contains a line with 'inDegrees', this indicates whether rotational values are in degrees (yes) or radians (no).

endheader
time	pelvis_tilt	pelvis_list	pelvis_rotation	pelvis_tx	pelvis_ty	pelvis_tz	hip_flexion_r	hip_adduction_r	hip_rotation_r	knee_angle_r	knee_adduction_r	knee_angle_r_beta	ankle_angle_r	subtalar_angle_r	mtp_angle_r	hip_flexion_l	hip_adduction_l	hip_rotation_l	knee_angle_l	knee_adduction_l	knee_angle_l_beta	ankle_angle_l	subtalar_angle_l	mtp_angle_l	lumbar_extension	lumbar_bending	lumbar_rotation	arm_flex_r	arm_add_r	arm_rot_r	elbow_flex_r	pro_sup_r	wrist_flex_r	wrist_dev_r	arm_flex_l	arm_add_l	arm_rot_l	elbow_flex_l	pro_sup_l	wrist_flex_l	wrist_dev_l
      0.77000000	      5.77641788	     -1.60933691	    -11.25163226	     -0.83319843	      0.94707396	      0.28900754	    -23.00022487	      0.96208965	     -0.06255807	      2.79682174	      2.31268476	      0.04881375	     26.07197179	     16.07942203	     -7.66452248	     16.84341896	     -6.22646940	    -26.67969712	      1.14402344	      3.85366382	      0.01996698	      9.67005651	     20.33437123	     -7.66452248	    -15.33146920	      1.45095044	      8.17770433	      4.43509271	    -23.93175695	     19.34698612	     48.35164964	     90.00000001	      0.00000000	      0.00000000	    -21.27609755	     -7.49936251	      1.63256765	     40.02396583	     90.00000001	      0.00000000	      0.00000000
      0.78000000	      5.77180032	     -1.79946795	    -11.72508005	     -0.81847739	      0.94394328	      0.28950078	    -23.85716194	      0.82339946	      0.64610673	      3.11454479	      2.27717587	      0.05435906	     26.33127048	     15.57463131	     -7.65497428	     17.47635375	     -6.71407463	    -29.30356088	      1.29735366	      4.10475018	      0.02264309	     10.32132407	     24.58887786	     -7.65497428	    -15.28557812	      1.56770529	      8.60565484	      4.62295514	    -24.15751171	     19.59760680	     48.29475738	     90.00000001	      0.00000000	      0.00000000	    -21.72192236	     -7.15154898	      0.99232730	     40.11007977	     90.00000001	      0.00000000	      0.00000000
      0.79000000	      5.64495492	     -1.85913429	    -11.83813996	     -0.80374403	      0.94080172	      0.28967443	    -24.49583502	      0.68993607	      0.65409767	      3.57090015	      2.24921670	      0.06232396	     26.34120767	     15.53705040	     -7.65425490	     18.15757249	     -6.82743090	    -29.19336735	      1.41316054	      4.15674907	      0.02466430	     10.27842489	     24.53048297	     -7.65425490	    -15.09256005	      1.61436334	      8.72946841	      4.65141380	    -24.26876389	     19.53938372	     48.25695901	     90.00000001	      0.00000000	      0.00000000	    -22.03042346	     -7.12772002	      0.97481144	     40.09324934	     90.00000001	      0.00000000	      0.00000000
      0.80000000	      5.96737580	     -1.61519325	    -12.47278662	     -0.78852016	      0.93850493	      0.29012596	    -25.55968255	     -0.18029713	      1.20344619	      4.01738724	      2.40028029	      0.07011663	     26.77116595	     15.41425385	     -7.65046745	     17.96947224	     -6.53918324	    -29.18487383	      1.26934914	      4.09403924	      0.02215432	     10.04777645	     24.82356587	     -7.65046745	    -15.28951878	      1.14642843	      9.18770363	      4.73530025	    -24.26772163	     19.51220512	     47.96080055	     90.00000001	      0.00000000	      0.00000000	    -22.45423930	     -6.94231270	      0.48830468	     40.50121770	     90.00000001	      0.00000000	      0.00000000
      0.81000000	      6.12152264	     -1.35829076	    -12.92400399	     -0.77317936	      0.93626439	      0.29027274	    -26.37096986	     -0.99753145	      1.47046893	      4.60550876	      2.58567373	      0.08038129	     26.70288508	     15.40172029	     -7.64765809	     18.08461834	     -6.17497683	    -28.60736656	      1.64364205	      3.78226406	      0.02868697	      9.97740725	     24.44060499	     -7.64765809	    -15.29171137	      0.74569455	      9.49184706	      4.69304042	    -24.26703172	     19.43425047	     47.68094489	     90.00000001	      0.00000000	      0.00000000	    -22.70902066	     -6.85652741	      0.23629562	     40.57509281	     90.00000001	      0.00000000	      0.00000000
